<svg width="142" height="37" viewBox="0 0 142 37" fill="none" xmlns="http://www.w3.org/2000/svg">
<path d="M48.7344 8.9375H54.7695C56.0664 8.9375 57.1719 9.13281 58.0859 9.52344C59 9.91406 59.6992 10.4922 60.1836 11.2578C60.6758 12.0156 60.9219 12.9531 60.9219 14.0703C60.9219 14.9219 60.7656 15.6719 60.4531 16.3203C60.1406 16.9688 59.6992 17.5156 59.1289 17.9609C58.5586 18.3984 57.8789 18.7383 57.0898 18.9805L56.1992 19.4141H50.7734L50.75 17.082H54.8164C55.5195 17.082 56.1055 16.957 56.5742 16.707C57.043 16.457 57.3945 16.1172 57.6289 15.6875C57.8711 15.25 57.9922 14.7578 57.9922 14.2109C57.9922 13.6172 57.875 13.1016 57.6406 12.6641C57.4141 12.2188 57.0625 11.8789 56.5859 11.6445C56.1094 11.4023 55.5039 11.2812 54.7695 11.2812H51.6758V26H48.7344V8.9375ZM58.4727 26L54.4648 18.3359L57.5469 18.3242L61.6133 25.8477V26H58.4727ZM69.1602 26.2344C68.2227 26.2344 67.375 26.082 66.6172 25.7773C65.8672 25.4648 65.2266 25.0312 64.6953 24.4766C64.1719 23.9219 63.7695 23.2695 63.4883 22.5195C63.207 21.7695 63.0664 20.9609 63.0664 20.0938V19.625C63.0664 18.6328 63.2109 17.7344 63.5 16.9297C63.7891 16.125 64.1914 15.4375 64.707 14.8672C65.2227 14.2891 65.832 13.8477 66.5352 13.543C67.2383 13.2383 68 13.0859 68.8203 13.0859C69.7266 13.0859 70.5195 13.2383 71.1992 13.543C71.8789 13.8477 72.4414 14.2773 72.8867 14.832C73.3398 15.3789 73.6758 16.0312 73.8945 16.7891C74.1211 17.5469 74.2344 18.3828 74.2344 19.2969V20.5039H64.4375V18.4766H71.4453V18.2539C71.4297 17.7461 71.3281 17.2695 71.1406 16.8242C70.9609 16.3789 70.6836 16.0195 70.3086 15.7461C69.9336 15.4727 69.4336 15.3359 68.8086 15.3359C68.3398 15.3359 67.9219 15.4375 67.5547 15.6406C67.1953 15.8359 66.8945 16.1211 66.6523 16.4961C66.4102 16.8711 66.2227 17.3242 66.0898 17.8555C65.9648 18.3789 65.9023 18.9688 65.9023 19.625V20.0938C65.9023 20.6484 65.9766 21.1641 66.125 21.6406C66.2812 22.1094 66.5078 22.5195 66.8047 22.8711C67.1016 23.2227 67.4609 23.5 67.8828 23.7031C68.3047 23.8984 68.7852 23.9961 69.3242 23.9961C70.0039 23.9961 70.6094 23.8594 71.1406 23.5859C71.6719 23.3125 72.1328 22.9258 72.5234 22.4258L74.0117 23.8672C73.7383 24.2656 73.3828 24.6484 72.9453 25.0156C72.5078 25.375 71.9727 25.668 71.3398 25.8945C70.7148 26.1211 69.9883 26.2344 69.1602 26.2344ZM79.2383 16.0273V26H76.4141V13.3203H79.0742L79.2383 16.0273ZM78.7344 19.1914L77.8203 19.1797C77.8281 18.2812 77.9531 17.457 78.1953 16.707C78.4453 15.957 78.7891 15.3125 79.2266 14.7734C79.6719 14.2344 80.2031 13.8203 80.8203 13.5312C81.4375 13.2344 82.125 13.0859 82.8828 13.0859C83.4922 13.0859 84.043 13.1719 84.5352 13.3438C85.0352 13.5078 85.4609 13.7773 85.8125 14.1523C86.1719 14.5273 86.4453 15.0156 86.6328 15.6172C86.8203 16.2109 86.9141 16.9414 86.9141 17.8086V26H84.0781V17.7969C84.0781 17.1875 83.9883 16.707 83.8086 16.3555C83.6367 15.9961 83.3828 15.7422 83.0469 15.5938C82.7188 15.4375 82.3086 15.3594 81.8164 15.3594C81.332 15.3594 80.8984 15.4609 80.5156 15.6641C80.1328 15.8672 79.8086 16.1445 79.543 16.4961C79.2852 16.8477 79.0859 17.2539 78.9453 17.7148C78.8047 18.1758 78.7344 18.668 78.7344 19.1914ZM95.3867 26.2344C94.4492 26.2344 93.6016 26.082 92.8438 25.7773C92.0938 25.4648 91.4531 25.0312 90.9219 24.4766C90.3984 23.9219 89.9961 23.2695 89.7148 22.5195C89.4336 21.7695 89.293 20.9609 89.293 20.0938V19.625C89.293 18.6328 89.4375 17.7344 89.7266 16.9297C90.0156 16.125 90.418 15.4375 90.9336 14.8672C91.4492 14.2891 92.0586 13.8477 92.7617 13.543C93.4648 13.2383 94.2266 13.0859 95.0469 13.0859C95.9531 13.0859 96.7461 13.2383 97.4258 13.543C98.1055 13.8477 98.668 14.2773 99.1133 14.832C99.5664 15.3789 99.9023 16.0312 100.121 16.7891C100.348 17.5469 100.461 18.3828 100.461 19.2969V20.5039H90.6641V18.4766H97.6719V18.2539C97.6562 17.7461 97.5547 17.2695 97.3672 16.8242C97.1875 16.3789 96.9102 16.0195 96.5352 15.7461C96.1602 15.4727 95.6602 15.3359 95.0352 15.3359C94.5664 15.3359 94.1484 15.4375 93.7812 15.6406C93.4219 15.8359 93.1211 16.1211 92.8789 16.4961C92.6367 16.8711 92.4492 17.3242 92.3164 17.8555C92.1914 18.3789 92.1289 18.9688 92.1289 19.625V20.0938C92.1289 20.6484 92.2031 21.1641 92.3516 21.6406C92.5078 22.1094 92.7344 22.5195 93.0312 22.8711C93.3281 23.2227 93.6875 23.5 94.1094 23.7031C94.5312 23.8984 95.0117 23.9961 95.5508 23.9961C96.2305 23.9961 96.8359 23.8594 97.3672 23.5859C97.8984 23.3125 98.3594 22.9258 98.75 22.4258L100.238 23.8672C99.9648 24.2656 99.6094 24.6484 99.1719 25.0156C98.7344 25.375 98.1992 25.668 97.5664 25.8945C96.9414 26.1211 96.2148 26.2344 95.3867 26.2344ZM110.785 13.3203H113.352V25.6484C113.352 26.7891 113.109 27.7578 112.625 28.5547C112.141 29.3516 111.465 29.957 110.598 30.3711C109.73 30.793 108.727 31.0039 107.586 31.0039C107.102 31.0039 106.562 30.9336 105.969 30.793C105.383 30.6523 104.812 30.4258 104.258 30.1133C103.711 29.8086 103.254 29.4062 102.887 28.9062L104.211 27.2422C104.664 27.7812 105.164 28.1758 105.711 28.4258C106.258 28.6758 106.832 28.8008 107.434 28.8008C108.082 28.8008 108.633 28.6797 109.086 28.4375C109.547 28.2031 109.902 27.8555 110.152 27.3945C110.402 26.9336 110.527 26.3711 110.527 25.707V16.1914L110.785 13.3203ZM102.172 19.8008V19.5547C102.172 18.5938 102.289 17.7188 102.523 16.9297C102.758 16.1328 103.094 15.4492 103.531 14.8789C103.969 14.3008 104.5 13.8594 105.125 13.5547C105.75 13.2422 106.457 13.0859 107.246 13.0859C108.066 13.0859 108.766 13.2344 109.344 13.5312C109.93 13.8281 110.418 14.2539 110.809 14.8086C111.199 15.3555 111.504 16.0117 111.723 16.7773C111.949 17.5352 112.117 18.3789 112.227 19.3086V20.0938C112.125 21 111.953 21.8281 111.711 22.5781C111.469 23.3281 111.148 23.9766 110.75 24.5234C110.352 25.0703 109.859 25.4922 109.273 25.7891C108.695 26.0859 108.012 26.2344 107.223 26.2344C106.449 26.2344 105.75 26.0742 105.125 25.7539C104.508 25.4336 103.977 24.9844 103.531 24.4062C103.094 23.8281 102.758 23.1484 102.523 22.3672C102.289 21.5781 102.172 20.7227 102.172 19.8008ZM104.996 19.5547V19.8008C104.996 20.3789 105.051 20.918 105.16 21.418C105.277 21.918 105.453 22.3594 105.688 22.7422C105.93 23.1172 106.234 23.4141 106.602 23.6328C106.977 23.8438 107.418 23.9492 107.926 23.9492C108.59 23.9492 109.133 23.8086 109.555 23.5273C109.984 23.2461 110.312 22.8672 110.539 22.3906C110.773 21.9062 110.938 21.3672 111.031 20.7734V18.6523C110.984 18.1914 110.887 17.7617 110.738 17.3633C110.598 16.9648 110.406 16.6172 110.164 16.3203C109.922 16.0156 109.617 15.7812 109.25 15.6172C108.883 15.4453 108.449 15.3594 107.949 15.3594C107.441 15.3594 107 15.4688 106.625 15.6875C106.25 15.9062 105.941 16.207 105.699 16.5898C105.465 16.9727 105.289 17.418 105.172 17.9258C105.055 18.4336 104.996 18.9766 104.996 19.5547ZM123.43 23.457V17.4102C123.43 16.957 123.348 16.5664 123.184 16.2383C123.02 15.9102 122.77 15.6562 122.434 15.4766C122.105 15.2969 121.691 15.207 121.191 15.207C120.73 15.207 120.332 15.2852 119.996 15.4414C119.66 15.5977 119.398 15.8086 119.211 16.0742C119.023 16.3398 118.93 16.6406 118.93 16.9766H116.117C116.117 16.4766 116.238 15.9922 116.48 15.5234C116.723 15.0547 117.074 14.6367 117.535 14.2695C117.996 13.9023 118.547 13.6133 119.188 13.4023C119.828 13.1914 120.547 13.0859 121.344 13.0859C122.297 13.0859 123.141 13.2461 123.875 13.5664C124.617 13.8867 125.199 14.3711 125.621 15.0195C126.051 15.6602 126.266 16.4648 126.266 17.4336V23.0703C126.266 23.6484 126.305 24.168 126.383 24.6289C126.469 25.082 126.59 25.4766 126.746 25.8125V26H123.852C123.719 25.6953 123.613 25.3086 123.535 24.8398C123.465 24.3633 123.43 23.9023 123.43 23.457ZM123.84 18.2891L123.863 20.0352H121.836C121.312 20.0352 120.852 20.0859 120.453 20.1875C120.055 20.2812 119.723 20.4219 119.457 20.6094C119.191 20.7969 118.992 21.0234 118.859 21.2891C118.727 21.5547 118.66 21.8555 118.66 22.1914C118.66 22.5273 118.738 22.8359 118.895 23.1172C119.051 23.3906 119.277 23.6055 119.574 23.7617C119.879 23.918 120.246 23.9961 120.676 23.9961C121.254 23.9961 121.758 23.8789 122.188 23.6445C122.625 23.4023 122.969 23.1094 123.219 22.7656C123.469 22.4141 123.602 22.082 123.617 21.7695L124.531 23.0234C124.438 23.3438 124.277 23.6875 124.051 24.0547C123.824 24.4219 123.527 24.7734 123.16 25.1094C122.801 25.4375 122.367 25.707 121.859 25.918C121.359 26.1289 120.781 26.2344 120.125 26.2344C119.297 26.2344 118.559 26.0703 117.91 25.7422C117.262 25.4062 116.754 24.957 116.387 24.3945C116.02 23.8242 115.836 23.1797 115.836 22.4609C115.836 21.7891 115.961 21.1953 116.211 20.6797C116.469 20.1562 116.844 19.7188 117.336 19.3672C117.836 19.0156 118.445 18.75 119.164 18.5703C119.883 18.3828 120.703 18.2891 121.625 18.2891H123.84ZM132.02 16.0273V26H129.195V13.3203H131.855L132.02 16.0273ZM131.516 19.1914L130.602 19.1797C130.609 18.2812 130.734 17.457 130.977 16.707C131.227 15.957 131.57 15.3125 132.008 14.7734C132.453 14.2344 132.984 13.8203 133.602 13.5312C134.219 13.2344 134.906 13.0859 135.664 13.0859C136.273 13.0859 136.824 13.1719 137.316 13.3438C137.816 13.5078 138.242 13.7773 138.594 14.1523C138.953 14.5273 139.227 15.0156 139.414 15.6172C139.602 16.2109 139.695 16.9414 139.695 17.8086V26H136.859V17.7969C136.859 17.1875 136.77 16.707 136.59 16.3555C136.418 15.9961 136.164 15.7422 135.828 15.5938C135.5 15.4375 135.09 15.3594 134.598 15.3594C134.113 15.3594 133.68 15.4609 133.297 15.6641C132.914 15.8672 132.59 16.1445 132.324 16.4961C132.066 16.8477 131.867 17.2539 131.727 17.7148C131.586 18.1758 131.516 18.668 131.516 19.1914Z" fill="black"/>
<circle cx="18.5" cy="18.5" r="15" stroke="#9200AA" stroke-width="7"/>
</svg>
